<?xml version="1.0" standalone="no"?>
<!DOCTYPE svg PUBLIC "-//W3C//DTD SVG 20010904//EN"
 "http://www.w3.org/TR/2001/REC-SVG-20010904/DTD/svg10.dtd">
<svg version="1.0" xmlns="http://www.w3.org/2000/svg"
 width="512.000000pt" height="512.000000pt" viewBox="0 0 512.000000 512.000000"
 preserveAspectRatio="xMidYMid meet">
<metadata>
Created by potrace 1.11, written by Peter Selinger 2001-2013
</metadata>
<g transform="translate(0.000000,512.000000) scale(0.100000,-0.100000)"
fill="#000000" stroke="none">
<path d="M4615 5109 c-441 -45 -753 -128 -1102 -294 -602 -287 -1187 -806
-1752 -1555 -56 -74 -108 -135 -114 -134 -7 0 -39 4 -72 8 -33 5 -69 10 -80
11 -11 2 -67 10 -125 19 -58 8 -127 18 -155 21 -27 3 -60 8 -73 10 -19 3 -117
-90 -583 -556 l-559 -559 80 -161 c79 -157 81 -160 103 -146 12 8 192 116 399
241 l378 226 60 0 c70 0 71 11 -13 -138 -54 -98 -267 -516 -267 -526 0 -2 -16
-39 -36 -83 -23 -48 -101 -167 -208 -313 -400 -550 -499 -727 -492 -887 10
-233 231 -355 463 -255 97 41 326 177 403 239 21 17 348 254 454 330 49 35 94
63 101 63 25 0 457 208 610 295 50 28 106 58 125 68 19 10 45 25 58 33 l22 16
0 -60 c0 -57 -4 -67 -72 -181 -258 -430 -327 -544 -365 -609 l-43 -72 159 -80
160 -79 560 560 c416 416 559 564 556 579 -2 10 -6 45 -10 77 -3 32 -8 65 -10
73 -2 8 -6 35 -9 60 -3 25 -8 54 -10 65 -2 11 -7 47 -11 80 -3 33 -11 80 -15
105 -11 54 -26 39 216 227 1002 783 1542 1549 1708 2428 27 145 34 190 42 285
3 36 7 70 9 77 2 6 7 69 11 140 5 104 3 140 -9 184 -21 68 -63 120 -124 150
-42 20 -64 23 -168 24 -66 1 -156 -2 -200 -6z"/>
</g>
</svg>
